<?xml version="1.0" encoding="UTF-8"?>
<svg version="1.1" xmlns="http://www.w3.org/2000/svg" width="512" height="512">
<path d="M0 0 C0.68004604 -0.00205263 1.36009207 -0.00410527 2.06074557 -0.0062201 C4.35012327 -0.01189551 6.63944091 -0.01043218 8.92882442 -0.00901413 C10.58260748 -0.01159747 12.23638991 -0.01461054 13.89017147 -0.01801753 C18.44333312 -0.02609469 22.99647901 -0.0278775 27.54964697 -0.028615 C32.45713101 -0.03046434 37.36460684 -0.03801116 42.27208614 -0.04475021 C53.00778155 -0.05833986 63.74347323 -0.06435944 74.47917581 -0.06876087 C81.18235271 -0.07152262 87.88552818 -0.07575989 94.58870411 -0.08026505 C113.1464078 -0.09245929 131.70411032 -0.10275781 150.26181793 -0.10614014 C151.44988999 -0.1063597 152.63796204 -0.10657927 153.86203628 -0.10680549 C155.05296292 -0.10702377 156.24388956 -0.10724204 157.47090489 -0.10746694 C159.88420045 -0.1079104 162.29749602 -0.10835697 164.71079159 -0.10880661 C165.90787131 -0.10902804 167.10495102 -0.10924947 168.33830588 -0.10947761 C187.73021711 -0.11342462 207.12209073 -0.130875 226.51398743 -0.15416613 C246.42159714 -0.17788369 266.32918799 -0.1903422 286.23681206 -0.19150805 C297.41483605 -0.19242467 308.59281107 -0.19817341 319.77082157 -0.21632767 C329.29061433 -0.23173419 338.81034299 -0.23684589 348.33014584 -0.22858956 C353.18614865 -0.22468483 358.0420224 -0.22560403 362.8980093 -0.23964691 C367.34753418 -0.25239647 371.79683317 -0.25117901 376.24635779 -0.2390562 C377.85207823 -0.23710102 379.45781474 -0.24016935 381.06351263 -0.24890056 C397.2648858 -0.33138713 409.96198014 2.33891163 421.93222713 13.66658401 C433.48318112 25.89586583 434.78445497 44.02168786 437.24082088 60.00252151 C437.50117618 61.66212213 437.76211896 63.32163067 438.02361202 64.9810524 C438.56483591 68.42495979 439.10143898 71.86954021 439.63413143 75.31477737 C440.31355543 79.70878148 441.00110461 84.10146321 441.6916523 88.4937315 C442.35661517 92.72540063 443.01764759 96.9576809 443.67832088 101.19002151 C443.86454541 102.37999646 443.86454541 102.37999646 444.05453205 103.59401131 C444.40808372 105.85802782 444.75884679 108.12245867 445.10874081 110.387043 C445.30763409 111.66893005 445.50652737 112.95081711 445.71144772 114.27154922 C446.7823282 121.801947 447.41309699 129.1384915 447.43735409 136.74690628 C447.44392529 137.66195938 447.45049648 138.57701248 447.45726681 139.51979446 C447.47681287 142.51664205 447.48861519 145.51344019 447.49863338 148.51033401 C447.50270891 149.54018858 447.50678444 150.57004314 447.51098347 151.63110542 C447.53175622 157.07383772 447.5461003 162.5165454 447.55551815 167.95930862 C447.56661386 173.56681687 447.60107546 179.17393178 447.64068985 184.78130054 C447.66685593 189.10939637 447.67520959 193.43739791 447.67879963 197.76556587 C447.68365906 199.83275853 447.69525459 201.89994716 447.71383762 203.967062 C447.73824734 206.86014102 447.73726158 209.7521928 447.73032284 212.64534378 C447.74953793 213.9134716 447.74953793 213.9134716 447.7691412 215.20721817 C447.70582844 222.47721175 445.60751163 227.67509806 440.57285213 232.94392776 C432.3350593 238.38397964 424.36530584 238.52757784 414.69785213 238.31892776 C413.49837948 238.30539261 412.29890682 238.29185745 411.06308651 238.27791214 C408.12836335 238.24283577 405.19460331 238.19368203 402.26035213 238.13142776 C402.33979061 237.3463887 402.41922909 236.56134964 402.50107479 235.75252151 C403.87402553 221.10172146 401.93356907 207.49298671 393.01035213 195.38142776 C382.68937955 183.10723887 370.33766941 175.95680003 354.26035213 174.13142776 C338.39291449 173.71568704 324.65172861 179.05065453 313.01035213 189.81892776 C299.78167994 203.86250789 298.26035213 219.68430271 298.26035213 238.13142776 C233.58035213 238.13142776 168.90035213 238.13142776 102.26035213 238.13142776 C102.26035213 231.53142776 102.26035213 224.93142776 102.26035213 218.13142776 C98.91863689 203.47929168 91.6459057 190.86383449 79.01035213 182.31892776 C66.61860011 174.90108731 52.62001351 172.39751946 38.45957088 175.18220901 C21.51628615 180.20933745 10.71457979 189.94481108 2.26035213 205.13142776 C-1.26585486 213.05677898 -1.89106571 220.92927588 -1.80214787 229.50642776 C-1.79763615 230.33787308 -1.79312443 231.16931839 -1.78847599 232.02595901 C-1.77677951 234.06114674 -1.75884721 236.09629699 -1.73964787 238.13142776 C-8.55352423 237.85097309 -13.46330753 236.63758335 -18.73964787 232.13142776 C-23.85334807 226.34520619 -24.8883494 221.50871472 -24.88008976 213.99048233 C-24.88306088 213.15094066 -24.886032 212.311399 -24.88909316 211.44641668 C-24.89779022 208.62290451 -24.89928926 205.7994347 -24.90078068 202.97591019 C-24.90540813 200.95567102 -24.91043269 198.93543273 -24.91582584 196.91519547 C-24.92895861 191.41927809 -24.93539647 185.92337293 -24.9398365 180.42744231 C-24.94276572 176.99527112 -24.94687023 173.56310327 -24.95134068 170.13093376 C-24.9650177 159.39668295 -24.97468345 148.66243979 -24.97854257 137.92818087 C-24.98302445 125.52916174 -25.00057757 113.13025278 -25.02954316 100.73126715 C-25.05114527 91.15242129 -25.06124606 81.57360646 -25.06258368 71.99473649 C-25.06363274 66.27127209 -25.06956188 60.54791123 -25.0874033 54.82447243 C-25.10385858 49.44089014 -25.10605181 44.05748951 -25.09726429 38.67389107 C-25.09649256 36.69779601 -25.10085445 34.72169129 -25.11072254 32.74562073 C-25.12340413 30.04797128 -25.11758587 27.3509689 -25.10714054 24.65332413 C-25.11519695 23.87131219 -25.12325335 23.08930025 -25.13155389 22.28359097 C-25.07522409 16.06344053 -23.51085196 12.14198376 -19.42714787 7.50642776 C-12.88520647 1.72517723 -8.5784848 0.00881031 0 0 Z M-0.73964787 27.13142776 C-3.37583143 30.57937686 -3.00911382 34.48693251 -2.96669865 38.6538887 C-2.96693972 39.41760914 -2.96718079 40.18132957 -2.96742916 40.96819305 C-2.96593937 43.4341825 -2.95072209 45.89986758 -2.93496037 48.36580276 C-2.93201889 49.89070363 -2.92997909 51.41560651 -2.92885685 52.9405098 C-2.91838161 58.5875133 -2.89045912 64.23447354 -2.86464787 69.88142776 C-2.82339787 82.50392776 -2.78214787 95.12642776 -2.73964787 108.13142776 C25.31035213 108.13142776 53.36035213 108.13142776 82.26035213 108.13142776 C82.26035213 80.08142776 82.26035213 52.03142776 82.26035213 23.13142776 C69.67910213 23.04892776 57.09785213 22.96642776 44.13535213 22.88142776 C40.17003475 22.84501175 36.20471737 22.80859573 32.11923885 22.7710762 C28.54943682 22.7576944 28.54943682 22.7576944 24.97962093 22.74965286 C23.39567216 22.7435303 21.81174147 22.72950276 20.22791195 22.70912552 C17.82156901 22.67972685 15.41636021 22.67580745 13.00986385 22.6773262 C12.3100886 22.66293377 11.61031334 22.64854134 10.88933277 22.63371277 C5.90460264 22.67565823 3.05379292 23.93995552 -0.73964787 27.13142776 Z M104.26035213 23.13142776 C104.26035213 51.18142776 104.26035213 79.23142776 104.26035213 108.13142776 C132.31035213 108.13142776 160.36035213 108.13142776 189.26035213 108.13142776 C189.26035213 80.08142776 189.26035213 52.03142776 189.26035213 23.13142776 C161.21035213 23.13142776 133.16035213 23.13142776 104.26035213 23.13142776 Z M211.26035213 23.13142776 C211.26035213 51.18142776 211.26035213 79.23142776 211.26035213 108.13142776 C239.31035213 108.13142776 267.36035213 108.13142776 296.26035213 108.13142776 C296.26035213 80.08142776 296.26035213 52.03142776 296.26035213 23.13142776 C268.21035213 23.13142776 240.16035213 23.13142776 211.26035213 23.13142776 Z M319.26035213 23.13142776 C312.69976606 76.75924032 312.69976606 76.75924032 326.59775448 126.27351761 C336.80039737 137.76837695 349.00245558 140.55380219 363.80710506 141.58931351 C383.97888027 142.76251956 404.14243658 141.7450772 424.26035213 140.13142776 C424.53642692 130.34581764 423.80037612 121.23564127 422.21347713 111.57283401 C421.99796543 110.21318808 421.78336759 108.85339701 421.56961727 107.49347305 C421.00866645 103.94165507 420.43465295 100.39207145 419.85788631 96.84279251 C419.28540135 93.30301764 418.72688607 89.76104088 418.16660213 86.21931839 C417.0908153 79.43403693 415.98640996 72.65376032 414.87094784 65.874897 C414.29371269 62.33595626 413.73508579 58.79454649 413.18027401 55.25203323 C412.84827149 53.20000256 412.51563421 51.14807445 412.18222713 49.09627151 C412.04520382 48.19155609 411.9081805 47.28684067 411.76700497 46.35470963 C410.61024608 39.40880632 408.55733222 32.36324727 402.88535213 27.75642776 C402.34136776 27.29494339 401.79738338 26.83345901 401.23691463 26.35799026 C396.29174467 23.28924843 391.50332774 22.88486471 385.78623104 22.90437698 C385.06359066 22.90408493 384.34095028 22.90379288 383.59641171 22.90349197 C381.22645385 22.90487661 378.85681704 22.9203965 376.48691463 22.93611526 C374.83639351 22.93984848 373.18587017 22.942694 371.53534603 22.9446907 C367.20509305 22.95230285 362.87497563 22.97193041 358.54477596 22.99409866 C354.12055959 23.01460935 349.69632117 23.02370357 345.27207088 23.03377151 C336.60143597 23.05517871 327.93091095 23.08928525 319.26035213 23.13142776 Z " fill="#000000" transform="translate(44.73964786529541,124.86857223510742)"/>
<path d="M0 0 C7.77611602 8.78869874 9.83902341 18.37631879 9.6171875 29.74609375 C8.86012191 40.38766352 3.78207374 48.57780104 -3.78515625 55.83203125 C-13.32334774 63.3839616 -23.75949664 64.94781594 -35.55810547 63.92675781 C-44.89504245 62.67315745 -52.52937057 57.61877205 -58.66015625 50.64453125 C-64.99215449 41.85273419 -67.92500074 31.41008262 -66.66015625 20.64453125 C-64.3658664 9.21405145 -59.4589021 0.63193165 -49.828125 -6.07421875 C-32.74423273 -16.17064517 -14.23555117 -13.22655987 0 0 Z " fill="#000000" transform="translate(123.66015625,325.35546875)"/>
<path d="M0 0 C7.37959586 7.06631113 12.49393449 14.38134563 13.0859375 24.86328125 C13.1156272 26.28360356 13.12821228 27.70437104 13.125 29.125 C13.12338867 29.87048096 13.12177734 30.61596191 13.12011719 31.3840332 C12.87220598 42.5777101 7.75764307 51.40130232 -0.18359375 59.13671875 C-9.97046128 67.0735168 -21.15805974 67.84935562 -33.25 66.8125 C-42.95701035 64.79020618 -50.23624059 59.86802429 -56.0625 51.9375 C-62.16441948 42.59697632 -64.47081697 32.86787708 -62.625 21.6875 C-59.71976343 9.55959967 -53.38877311 1.84751459 -43.06640625 -4.671875 C-29.03695438 -12.22170485 -11.98471574 -10.2649359 0 0 Z " fill="#000000" transform="translate(420.25,322.1875)"/>
</svg>
