<?xml version="1.0" encoding="UTF-8"?>
<svg version="1.1" xmlns="http://www.w3.org/2000/svg" width="512" height="512">
<path d="M0 0 C0.71269255 -0.00226556 1.42538511 -0.00453111 2.15967441 -0.00686532 C4.53613347 -0.01317063 6.91253499 -0.01237819 9.28900146 -0.0115509 C10.99777805 -0.01454459 12.70655396 -0.01794761 14.41532898 -0.02172852 C19.04979846 -0.03055219 23.68424947 -0.03290597 28.31872654 -0.0335443 C31.21709192 -0.03425583 34.11545262 -0.03639212 37.01381683 -0.03904152 C47.13370562 -0.04829014 57.25358125 -0.05237709 67.37347412 -0.05158997 C76.79261767 -0.05098958 86.21170387 -0.06153503 95.63083291 -0.07733363 C103.72871044 -0.09042994 111.82656928 -0.09577297 119.92445731 -0.09513456 C124.75595603 -0.09488015 129.58740378 -0.09769967 134.41889191 -0.10831261 C138.96613259 -0.11802859 143.51327398 -0.11804885 148.06051826 -0.11079597 C149.72370868 -0.10975442 151.3869054 -0.11208739 153.05008507 -0.11815643 C177.68047616 -0.20216877 190.60070952 7.22927912 208.1942749 23.84074402 C211.29200522 26.76148447 214.45553159 29.58711245 217.68255615 32.36418152 C220.39694933 34.74255697 223.04781127 37.18880182 225.7020874 39.63371277 C229.00231524 42.67265769 232.31158214 45.69527487 235.7020874 48.63371277 C239.09260313 51.57215973 242.40151971 54.59512732 245.7020874 57.63371277 C250.31074977 61.8703979 254.93794311 66.0720321 259.7020874 70.13371277 C260.60056396 70.91101746 261.49904053 71.68832214 262.42474365 72.48918152 C263.38251709 73.30000183 264.34029053 74.11082214 265.3270874 74.94621277 C266.64579834 76.06963074 266.64579834 76.06963074 267.9911499 77.21574402 C272.60685181 80.48131987 277.00439636 81.38095588 282.59295654 81.404953 C283.73176773 81.41513962 284.87057892 81.42532623 286.04389954 81.43582153 C287.87210487 81.4390316 287.87210487 81.4390316 289.73724365 81.44230652 C292.3472718 81.46747945 294.95729779 81.49287727 297.56732178 81.51847839 C301.65933229 81.54911326 305.75136415 81.57135096 309.84344482 81.5900116 C313.80821688 81.6091705 317.7726376 81.65129923 321.73724365 81.69230652 C322.94187759 81.69242233 324.14651154 81.69253815 325.38764954 81.69265747 C343.43926799 81.90007534 358.66756226 87.40757544 371.7020874 100.13371277 C378.51132226 108.06938239 383.77129678 118.0769488 383.86322021 128.71525574 C383.87282776 129.61654205 383.8824353 130.51782837 383.89233398 131.44642639 C383.8987088 132.89651596 383.8987088 132.89651596 383.9052124 134.37590027 C383.91091248 135.3770285 383.91661255 136.37815674 383.92248535 137.40962219 C383.93192387 139.52613776 383.93846477 141.64266795 383.94232178 143.75920105 C383.95203047 146.98976859 383.98306632 150.21970062 384.0145874 153.45011902 C384.02111758 155.508709 384.026368 157.56730352 384.0302124 159.62590027 C384.0425592 160.58857819 384.05490601 161.5512561 384.06762695 162.54310608 C384.04668543 168.87623146 383.23930507 173.29895358 378.87005615 178.18058777 C378.21650146 178.74261902 377.56294678 179.30465027 376.8895874 179.88371277 C376.24376709 180.45605652 375.59794678 181.02840027 374.93255615 181.61808777 C369.84122409 185.07769695 364.67115596 185.41581428 358.6786499 185.32902527 C357.55938614 185.32478043 357.55938614 185.32478043 356.41751099 185.32044983 C354.05386752 185.30932964 351.69061472 185.28424098 349.3270874 185.25871277 C347.71641582 185.24867239 346.10573826 185.23954839 344.49505615 185.23136902 C340.56391796 185.20941716 336.63306873 185.17494462 332.7020874 185.13371277 C332.43815186 183.54586975 332.43815186 183.54586975 332.16888428 181.9259491 C330.33557653 171.01895369 330.33557653 171.01895369 326.2020874 160.82121277 C325.69041016 159.83822205 325.69041016 159.83822205 325.168396 158.83537292 C317.19045391 144.3574105 304.34308562 136.98870598 289.12005615 132.11418152 C272.66007201 127.3925175 255.02135788 129.67964984 239.8270874 137.32121277 C229.50007604 143.34104241 222.42348387 150.6673715 216.7020874 161.13371277 C216.29087646 161.87363464 215.87966553 162.61355652 215.45599365 163.37590027 C212.71255192 168.86278373 211.85475907 174.35301858 211.09661865 180.41105652 C210.7020874 183.13371277 210.7020874 183.13371277 209.7020874 185.13371277 C190.68332476 185.15704054 171.66456502 185.17469134 152.64579105 185.18552494 C143.81567469 185.19068816 134.98556721 185.19773134 126.15545654 185.20915222 C118.46196675 185.21909828 110.76848339 185.22556601 103.07498735 185.22780126 C98.99879088 185.2291085 94.92261279 185.23219519 90.8464222 185.23944283 C87.01420985 185.24620181 83.18202357 185.24832998 79.34980583 185.24682045 C77.93923679 185.24709683 76.52866693 185.24910268 75.11810303 185.25291824 C73.20043051 185.25785351 71.2827442 185.25611078 69.36506653 185.25396729 C68.28933412 185.25488908 67.2136017 185.25581087 66.10527134 185.2567606 C63.7020874 185.13371277 63.7020874 185.13371277 62.7020874 184.13371277 C62.50465483 182.11382565 62.31963181 180.09272399 62.1395874 178.07121277 C60.2485615 164.34376546 53.06375458 151.98776717 42.36224365 143.21574402 C27.65719416 132.32053357 10.76463817 128.40948779 -7.2979126 130.13371277 C-21.97427406 132.32065646 -33.95756735 138.66364993 -44.2979126 149.13371277 C-45.16029541 149.96322449 -45.16029541 149.96322449 -46.0401001 150.80949402 C-55.00992973 160.17436797 -57.48957248 172.77672199 -59.2979126 185.13371277 C-73.55853762 185.74585407 -86.28305219 183.11790574 -97.5479126 173.88371277 C-104.84970562 167.06870595 -109.7284479 158.78563482 -110.58836365 148.74095154 C-110.71030009 144.68797735 -110.74239265 140.64507401 -110.73150635 136.59074402 C-110.73607578 135.09340174 -110.7413836 133.59606156 -110.74739075 132.09872437 C-110.75627972 128.97626668 -110.75394456 125.85406539 -110.74395752 122.73161316 C-110.73243149 118.74023983 -110.75275522 114.74974649 -110.78187466 110.75848866 C-110.80025283 107.67257119 -110.79994176 104.58686447 -110.79423714 101.50090599 C-110.79408434 100.02936754 -110.80009417 98.55781443 -110.81252861 97.08632851 C-110.82748133 95.02840424 -110.81673611 92.97210524 -110.79962158 90.91423035 C-110.79945541 89.74668716 -110.79928925 88.57914398 -110.79911804 87.3762207 C-110.01940913 82.33195718 -107.131205 78.70251416 -103.5635376 75.16886902 C-103.07651367 74.68305359 -102.58948975 74.19723816 -102.08770752 73.69670105 C-101.32550903 72.95395935 -101.32550903 72.95395935 -100.5479126 72.19621277 C-100.01206543 71.66753601 -99.47621826 71.13885925 -98.9241333 70.59416199 C-95.58809755 67.32590123 -92.1700206 64.19361896 -88.61431885 61.16496277 C-85.31381818 58.2707632 -82.12432582 55.26168966 -78.9229126 52.25871277 C-73.93315539 47.58161846 -68.90793746 42.95441268 -63.80963135 38.39543152 C-60.84646568 35.72719991 -57.91395923 33.02731623 -54.9854126 30.32121277 C-54.4395752 29.81807556 -53.89373779 29.31493835 -53.33135986 28.79655457 C-50.51456125 26.19684548 -47.71212917 23.58377897 -44.9307251 20.94621277 C-31.5292589 8.28469278 -19.13752699 0.02521363 0 0 Z M-23.6104126 33.36808777 C-25.30248547 35.13849734 -27.06511786 36.72660562 -28.9229126 38.32121277 C-32.57935157 41.47453707 -36.13275461 44.72644029 -39.6729126 48.00871277 C-44.33448022 52.32886416 -49.02898017 56.60740095 -53.76275635 60.84855652 C-57.18152581 63.93019001 -60.56612186 67.04842492 -63.95147705 70.16667175 C-67.56188096 73.48343184 -71.23369833 76.71736813 -74.9697876 79.89152527 C-75.40806885 80.30144714 -75.8463501 80.71136902 -76.2979126 81.13371277 C-76.2979126 81.46371277 -76.2979126 81.79371277 -76.2979126 82.13371277 C-30.0979126 82.13371277 16.1020874 82.13371277 63.7020874 82.13371277 C63.7020874 62.33371277 63.7020874 42.53371277 63.7020874 22.13371277 C51.14943316 21.95894885 51.14943316 21.95894885 38.59661865 21.84074402 C33.47009624 21.80499386 28.34422198 21.76288602 23.21820068 21.68107605 C19.08138343 21.61547313 14.94526196 21.57992161 10.80796432 21.56444931 C9.23636305 21.55343566 7.66479621 21.53192911 6.09349442 21.49933243 C-6.67114474 21.24526717 -14.70051814 23.88070015 -23.6104126 33.36808777 Z M86.7020874 22.13371277 C86.7020874 41.93371277 86.7020874 61.73371277 86.7020874 82.13371277 C136.5320874 82.13371277 186.3620874 82.13371277 237.7020874 82.13371277 C236.0520874 80.48371277 234.4020874 78.83371277 232.7020874 77.13371277 C232.05626709 76.47629089 231.41044678 75.81886902 230.74505615 75.14152527 C226.97001572 71.31085266 223.10189716 67.67986537 219.02630615 64.17277527 C216.07798378 61.58617985 213.20292586 58.92536153 210.3270874 56.25871277 C205.68850565 51.95937751 201.0180866 47.70116571 196.29974365 43.48918152 C194.34804586 41.71944653 192.42309278 39.93330399 190.51068115 38.12199402 C178.07693297 25.9370687 178.07693297 25.9370687 161.855896 22.02018738 C161.04605759 22.02004135 160.23621918 22.01989532 159.40184021 22.01974487 C156.71804144 22.020443 154.03431159 22.02823073 151.3505249 22.03605652 C149.49250323 22.03792105 147.63448108 22.03934479 145.77645874 22.04034424 C140.88066252 22.04416662 135.98489585 22.05399454 131.08911133 22.06504822 C125.21791189 22.07706449 119.34670259 22.08166591 113.47549438 22.08750153 C104.55100482 22.09720642 95.62658014 22.11636494 86.7020874 22.13371277 Z " fill="#000000" transform="translate(119.29791259765625,143.8662872314453)"/>
<path d="M0 0 C8.19523314 6.51482256 14.49923912 15.44573597 16 26 C16.85709951 38.57628709 14.82436894 48.03324433 7 58 C6.52046875 58.61746094 6.0409375 59.23492187 5.546875 59.87109375 C-2.43941703 68.92625819 -14.91454052 73.27316324 -26.63671875 74.2109375 C-39.57451346 74.69079864 -51.79225438 70.55797885 -61.75 62.3125 C-70.21711095 54.30913541 -74.66381844 44.42491354 -75.12890625 32.76953125 C-74.66953828 21.11828915 -70.71358529 11.62588851 -62.57421875 3.2578125 C-44.84748724 -12.2900643 -19.31098664 -13.2219368 0 0 Z " fill="#000000" transform="translate(420,296)"/>
<path d="M0 0 C8.56393485 7.87164072 13.92863543 16.31388492 15 28 C15.13961569 40.61195095 11.86601445 50.87080145 3 60 C-7.52244325 69.21327457 -19.02068886 73.39982105 -32.94140625 73.2109375 C-46.33135936 72.28749246 -57.74796934 67.35807556 -66.98828125 57.5703125 C-74.87131442 47.49839828 -76.78691819 37.48868316 -76 25 C-74.76466061 17.61937057 -71.58581335 11.84145272 -67 6 C-66.52046875 5.38253906 -66.0409375 4.76507813 -65.546875 4.12890625 C-49.11572564 -14.50136158 -18.88167688 -14.08214449 0 0 Z " fill="#000000" transform="translate(152,297)"/>
</svg>
